%TF.GenerationSoftware,KiCad,Pcbnew,10.0.0*%
%TF.CreationDate,2026-04-16T20:19:48-07:00*%
%TF.ProjectId,pcb_lab_v2_base,7063625f-6c61-4625-9f76-325f62617365,rev?*%
%TF.SameCoordinates,Original*%
%TF.FileFunction,Soldermask,Top*%
%TF.FilePolarity,Negative*%
%FSLAX46Y46*%
G04 Gerber Fmt 4.6, Leading zero omitted, Abs format (unit mm)*
G04 Created by KiCad (PCBNEW 10.0.0) date 2026-04-16 20:19:48*
%MOMM*%
%LPD*%
G01*
G04 APERTURE LIST*
G04 Aperture macros list*
%AMRoundRect*
0 Rectangle with rounded corners*
0 $1 Rounding radius*
0 $2 $3 $4 $5 $6 $7 $8 $9 X,Y pos of 4 corners*
0 Add a 4 corners polygon primitive as box body*
4,1,4,$2,$3,$4,$5,$6,$7,$8,$9,$2,$3,0*
0 Add four circle primitives for the rounded corners*
1,1,$1+$1,$2,$3*
1,1,$1+$1,$4,$5*
1,1,$1+$1,$6,$7*
1,1,$1+$1,$8,$9*
0 Add four rect primitives between the rounded corners*
20,1,$1+$1,$2,$3,$4,$5,0*
20,1,$1+$1,$4,$5,$6,$7,0*
20,1,$1+$1,$6,$7,$8,$9,0*
20,1,$1+$1,$8,$9,$2,$3,0*%
G04 Aperture macros list end*
%ADD10R,1.500000X1.000000*%
%ADD11R,1.700000X1.700000*%
%ADD12C,1.700000*%
%ADD13RoundRect,0.225000X-0.225000X-0.250000X0.225000X-0.250000X0.225000X0.250000X-0.225000X0.250000X0*%
G04 APERTURE END LIST*
D10*
%TO.C,D2*%
X113925000Y-48200000D03*
X113925000Y-45000000D03*
X109025000Y-45000000D03*
X109025000Y-48200000D03*
%TD*%
%TO.C,D1*%
X124950000Y-48200000D03*
X124950000Y-45000000D03*
X120050000Y-45000000D03*
X120050000Y-48200000D03*
%TD*%
D11*
%TO.C,J2*%
X82000000Y-39960000D03*
D12*
X82000000Y-42500000D03*
X82000000Y-45040000D03*
X82000000Y-47580000D03*
X82000000Y-50120000D03*
%TD*%
D10*
%TO.C,D3*%
X102900000Y-48200000D03*
X102900000Y-45000000D03*
X98000000Y-45000000D03*
X98000000Y-48200000D03*
%TD*%
D13*
%TO.C,C3*%
X99675000Y-41500000D03*
X101225000Y-41500000D03*
%TD*%
%TO.C,C2*%
X110700000Y-41500000D03*
X112250000Y-41500000D03*
%TD*%
%TO.C,C1*%
X121725000Y-41500000D03*
X123275000Y-41500000D03*
%TD*%
D11*
%TO.C,J1*%
X88145000Y-35000000D03*
D12*
X88145000Y-32460000D03*
X90685000Y-35000000D03*
X90685000Y-32460000D03*
X93225000Y-35000000D03*
X93225000Y-32460000D03*
X95765000Y-35000000D03*
X95765000Y-32460000D03*
X98305000Y-35000000D03*
X98305000Y-32460000D03*
X100845000Y-35000000D03*
X100845000Y-32460000D03*
X103385000Y-35000000D03*
X103385000Y-32460000D03*
X105925000Y-35000000D03*
X105925000Y-32460000D03*
X108465000Y-35000000D03*
X108465000Y-32460000D03*
X111005000Y-35000000D03*
X111005000Y-32460000D03*
X113545000Y-35000000D03*
X113545000Y-32460000D03*
X116085000Y-35000000D03*
X116085000Y-32460000D03*
X118625000Y-35000000D03*
X118625000Y-32460000D03*
X121165000Y-35000000D03*
X121165000Y-32460000D03*
X123705000Y-35000000D03*
X123705000Y-32460000D03*
X126245000Y-35000000D03*
X126245000Y-32460000D03*
X128785000Y-35000000D03*
X128785000Y-32460000D03*
X131325000Y-35000000D03*
X131325000Y-32460000D03*
X133865000Y-35000000D03*
X133865000Y-32460000D03*
X136405000Y-35000000D03*
X136405000Y-32460000D03*
%TD*%
M02*
