M48
; DRILL file KiCad 10.0.0 date 2026-04-16T20:19:48
; FORMAT={-:-/ absolute / inch / decimal}
; #@! TF.CreationDate,2026-04-16T20:19:48-07:00
; #@! TF.GenerationSoftware,Kicad,Pcbnew,10.0.0
; #@! TF.FileFunction,Plated,1,2,PTH
FMAT,2
INCH
; #@! TA.AperFunction,Plated,PTH,ViaDrill
T1C0.0118
; #@! TA.AperFunction,Plated,PTH,ComponentDrill
T2C0.0394
%
G90
G05
T1
X4.0354Y-1.6339
X4.1142Y-1.9094
X4.4685Y-1.6339
X4.5669Y-1.9094
X4.9016Y-1.6339
X5.0Y-1.9094
T2
X3.2283Y-1.5732
X3.2283Y-1.6732
X3.2283Y-1.7732
X3.2283Y-1.8732
X3.2283Y-1.9732
X3.4703Y-1.278
X3.4703Y-1.378
X3.5703Y-1.278
X3.5703Y-1.378
X3.6703Y-1.278
X3.6703Y-1.378
X3.7703Y-1.278
X3.7703Y-1.378
X3.8703Y-1.278
X3.8703Y-1.378
X3.9703Y-1.278
X3.9703Y-1.378
X4.0703Y-1.278
X4.0703Y-1.378
X4.1703Y-1.278
X4.1703Y-1.378
X4.2703Y-1.278
X4.2703Y-1.378
X4.3703Y-1.278
X4.3703Y-1.378
X4.4703Y-1.278
X4.4703Y-1.378
X4.5703Y-1.278
X4.5703Y-1.378
X4.6703Y-1.278
X4.6703Y-1.378
X4.7703Y-1.278
X4.7703Y-1.378
X4.8703Y-1.278
X4.8703Y-1.378
X4.9703Y-1.278
X4.9703Y-1.378
X5.0703Y-1.278
X5.0703Y-1.378
X5.1703Y-1.278
X5.1703Y-1.378
X5.2703Y-1.278
X5.2703Y-1.378
X5.3703Y-1.278
X5.3703Y-1.378
M30
