%TF.GenerationSoftware,KiCad,Pcbnew,10.0.0*%
%TF.CreationDate,2026-04-16T20:19:48-07:00*%
%TF.ProjectId,pcb_lab_v2_base,7063625f-6c61-4625-9f76-325f62617365,rev?*%
%TF.SameCoordinates,Original*%
%TF.FileFunction,Legend,Bot*%
%TF.FilePolarity,Positive*%
%FSLAX46Y46*%
G04 Gerber Fmt 4.6, Leading zero omitted, Abs format (unit mm)*
G04 Created by KiCad (PCBNEW 10.0.0) date 2026-04-16 20:19:48*
%MOMM*%
%LPD*%
G01*
G04 APERTURE LIST*
%ADD10C,0.100000*%
%ADD11C,0.150000*%
%ADD12C,0.120000*%
%ADD13R,1.700000X1.700000*%
%ADD14C,1.700000*%
G04 APERTURE END LIST*
D10*
X134410401Y-51872419D02*
X134410401Y-52586704D01*
X134410401Y-52586704D02*
X134458020Y-52729561D01*
X134458020Y-52729561D02*
X134553258Y-52824800D01*
X134553258Y-52824800D02*
X134696115Y-52872419D01*
X134696115Y-52872419D02*
X134791353Y-52872419D01*
X133458020Y-52872419D02*
X133934210Y-52872419D01*
X133934210Y-52872419D02*
X133934210Y-51872419D01*
X132553258Y-52777180D02*
X132600877Y-52824800D01*
X132600877Y-52824800D02*
X132743734Y-52872419D01*
X132743734Y-52872419D02*
X132838972Y-52872419D01*
X132838972Y-52872419D02*
X132981829Y-52824800D01*
X132981829Y-52824800D02*
X133077067Y-52729561D01*
X133077067Y-52729561D02*
X133124686Y-52634323D01*
X133124686Y-52634323D02*
X133172305Y-52443847D01*
X133172305Y-52443847D02*
X133172305Y-52300990D01*
X133172305Y-52300990D02*
X133124686Y-52110514D01*
X133124686Y-52110514D02*
X133077067Y-52015276D01*
X133077067Y-52015276D02*
X132981829Y-51920038D01*
X132981829Y-51920038D02*
X132838972Y-51872419D01*
X132838972Y-51872419D02*
X132743734Y-51872419D01*
X132743734Y-51872419D02*
X132600877Y-51920038D01*
X132600877Y-51920038D02*
X132553258Y-51967657D01*
X131838972Y-51872419D02*
X131838972Y-52586704D01*
X131838972Y-52586704D02*
X131886591Y-52729561D01*
X131886591Y-52729561D02*
X131981829Y-52824800D01*
X131981829Y-52824800D02*
X132124686Y-52872419D01*
X132124686Y-52872419D02*
X132219924Y-52872419D01*
X130886591Y-52872419D02*
X131362781Y-52872419D01*
X131362781Y-52872419D02*
X131362781Y-51872419D01*
X129981829Y-52777180D02*
X130029448Y-52824800D01*
X130029448Y-52824800D02*
X130172305Y-52872419D01*
X130172305Y-52872419D02*
X130267543Y-52872419D01*
X130267543Y-52872419D02*
X130410400Y-52824800D01*
X130410400Y-52824800D02*
X130505638Y-52729561D01*
X130505638Y-52729561D02*
X130553257Y-52634323D01*
X130553257Y-52634323D02*
X130600876Y-52443847D01*
X130600876Y-52443847D02*
X130600876Y-52300990D01*
X130600876Y-52300990D02*
X130553257Y-52110514D01*
X130553257Y-52110514D02*
X130505638Y-52015276D01*
X130505638Y-52015276D02*
X130410400Y-51920038D01*
X130410400Y-51920038D02*
X130267543Y-51872419D01*
X130267543Y-51872419D02*
X130172305Y-51872419D01*
X130172305Y-51872419D02*
X130029448Y-51920038D01*
X130029448Y-51920038D02*
X129981829Y-51967657D01*
X129267543Y-51872419D02*
X129267543Y-52586704D01*
X129267543Y-52586704D02*
X129315162Y-52729561D01*
X129315162Y-52729561D02*
X129410400Y-52824800D01*
X129410400Y-52824800D02*
X129553257Y-52872419D01*
X129553257Y-52872419D02*
X129648495Y-52872419D01*
X128315162Y-52872419D02*
X128791352Y-52872419D01*
X128791352Y-52872419D02*
X128791352Y-51872419D01*
X127410400Y-52777180D02*
X127458019Y-52824800D01*
X127458019Y-52824800D02*
X127600876Y-52872419D01*
X127600876Y-52872419D02*
X127696114Y-52872419D01*
X127696114Y-52872419D02*
X127838971Y-52824800D01*
X127838971Y-52824800D02*
X127934209Y-52729561D01*
X127934209Y-52729561D02*
X127981828Y-52634323D01*
X127981828Y-52634323D02*
X128029447Y-52443847D01*
X128029447Y-52443847D02*
X128029447Y-52300990D01*
X128029447Y-52300990D02*
X127981828Y-52110514D01*
X127981828Y-52110514D02*
X127934209Y-52015276D01*
X127934209Y-52015276D02*
X127838971Y-51920038D01*
X127838971Y-51920038D02*
X127696114Y-51872419D01*
X127696114Y-51872419D02*
X127600876Y-51872419D01*
X127600876Y-51872419D02*
X127458019Y-51920038D01*
X127458019Y-51920038D02*
X127410400Y-51967657D01*
X126696114Y-51872419D02*
X126696114Y-52586704D01*
X126696114Y-52586704D02*
X126743733Y-52729561D01*
X126743733Y-52729561D02*
X126838971Y-52824800D01*
X126838971Y-52824800D02*
X126981828Y-52872419D01*
X126981828Y-52872419D02*
X127077066Y-52872419D01*
X125743733Y-52872419D02*
X126219923Y-52872419D01*
X126219923Y-52872419D02*
X126219923Y-51872419D01*
X124838971Y-52777180D02*
X124886590Y-52824800D01*
X124886590Y-52824800D02*
X125029447Y-52872419D01*
X125029447Y-52872419D02*
X125124685Y-52872419D01*
X125124685Y-52872419D02*
X125267542Y-52824800D01*
X125267542Y-52824800D02*
X125362780Y-52729561D01*
X125362780Y-52729561D02*
X125410399Y-52634323D01*
X125410399Y-52634323D02*
X125458018Y-52443847D01*
X125458018Y-52443847D02*
X125458018Y-52300990D01*
X125458018Y-52300990D02*
X125410399Y-52110514D01*
X125410399Y-52110514D02*
X125362780Y-52015276D01*
X125362780Y-52015276D02*
X125267542Y-51920038D01*
X125267542Y-51920038D02*
X125124685Y-51872419D01*
X125124685Y-51872419D02*
X125029447Y-51872419D01*
X125029447Y-51872419D02*
X124886590Y-51920038D01*
X124886590Y-51920038D02*
X124838971Y-51967657D01*
X135696115Y-43027531D02*
X135696115Y-42027531D01*
X135696115Y-42027531D02*
X135315163Y-42027531D01*
X135315163Y-42027531D02*
X135219925Y-42075150D01*
X135219925Y-42075150D02*
X135172306Y-42122769D01*
X135172306Y-42122769D02*
X135124687Y-42218007D01*
X135124687Y-42218007D02*
X135124687Y-42360864D01*
X135124687Y-42360864D02*
X135172306Y-42456102D01*
X135172306Y-42456102D02*
X135219925Y-42503721D01*
X135219925Y-42503721D02*
X135315163Y-42551340D01*
X135315163Y-42551340D02*
X135696115Y-42551340D01*
X134124687Y-42932292D02*
X134172306Y-42979912D01*
X134172306Y-42979912D02*
X134315163Y-43027531D01*
X134315163Y-43027531D02*
X134410401Y-43027531D01*
X134410401Y-43027531D02*
X134553258Y-42979912D01*
X134553258Y-42979912D02*
X134648496Y-42884673D01*
X134648496Y-42884673D02*
X134696115Y-42789435D01*
X134696115Y-42789435D02*
X134743734Y-42598959D01*
X134743734Y-42598959D02*
X134743734Y-42456102D01*
X134743734Y-42456102D02*
X134696115Y-42265626D01*
X134696115Y-42265626D02*
X134648496Y-42170388D01*
X134648496Y-42170388D02*
X134553258Y-42075150D01*
X134553258Y-42075150D02*
X134410401Y-42027531D01*
X134410401Y-42027531D02*
X134315163Y-42027531D01*
X134315163Y-42027531D02*
X134172306Y-42075150D01*
X134172306Y-42075150D02*
X134124687Y-42122769D01*
X133362782Y-42503721D02*
X133219925Y-42551340D01*
X133219925Y-42551340D02*
X133172306Y-42598959D01*
X133172306Y-42598959D02*
X133124687Y-42694197D01*
X133124687Y-42694197D02*
X133124687Y-42837054D01*
X133124687Y-42837054D02*
X133172306Y-42932292D01*
X133172306Y-42932292D02*
X133219925Y-42979912D01*
X133219925Y-42979912D02*
X133315163Y-43027531D01*
X133315163Y-43027531D02*
X133696115Y-43027531D01*
X133696115Y-43027531D02*
X133696115Y-42027531D01*
X133696115Y-42027531D02*
X133362782Y-42027531D01*
X133362782Y-42027531D02*
X133267544Y-42075150D01*
X133267544Y-42075150D02*
X133219925Y-42122769D01*
X133219925Y-42122769D02*
X133172306Y-42218007D01*
X133172306Y-42218007D02*
X133172306Y-42313245D01*
X133172306Y-42313245D02*
X133219925Y-42408483D01*
X133219925Y-42408483D02*
X133267544Y-42456102D01*
X133267544Y-42456102D02*
X133362782Y-42503721D01*
X133362782Y-42503721D02*
X133696115Y-42503721D01*
X131458020Y-43027531D02*
X131934210Y-43027531D01*
X131934210Y-43027531D02*
X131934210Y-42027531D01*
X130696115Y-43027531D02*
X130696115Y-42503721D01*
X130696115Y-42503721D02*
X130743734Y-42408483D01*
X130743734Y-42408483D02*
X130838972Y-42360864D01*
X130838972Y-42360864D02*
X131029448Y-42360864D01*
X131029448Y-42360864D02*
X131124686Y-42408483D01*
X130696115Y-42979912D02*
X130791353Y-43027531D01*
X130791353Y-43027531D02*
X131029448Y-43027531D01*
X131029448Y-43027531D02*
X131124686Y-42979912D01*
X131124686Y-42979912D02*
X131172305Y-42884673D01*
X131172305Y-42884673D02*
X131172305Y-42789435D01*
X131172305Y-42789435D02*
X131124686Y-42694197D01*
X131124686Y-42694197D02*
X131029448Y-42646578D01*
X131029448Y-42646578D02*
X130791353Y-42646578D01*
X130791353Y-42646578D02*
X130696115Y-42598959D01*
X130219924Y-43027531D02*
X130219924Y-42027531D01*
X130219924Y-42408483D02*
X130124686Y-42360864D01*
X130124686Y-42360864D02*
X129934210Y-42360864D01*
X129934210Y-42360864D02*
X129838972Y-42408483D01*
X129838972Y-42408483D02*
X129791353Y-42456102D01*
X129791353Y-42456102D02*
X129743734Y-42551340D01*
X129743734Y-42551340D02*
X129743734Y-42837054D01*
X129743734Y-42837054D02*
X129791353Y-42932292D01*
X129791353Y-42932292D02*
X129838972Y-42979912D01*
X129838972Y-42979912D02*
X129934210Y-43027531D01*
X129934210Y-43027531D02*
X130124686Y-43027531D01*
X130124686Y-43027531D02*
X130219924Y-42979912D01*
X128648495Y-42360864D02*
X128410400Y-43027531D01*
X128410400Y-43027531D02*
X128172305Y-42360864D01*
X127838971Y-42122769D02*
X127791352Y-42075150D01*
X127791352Y-42075150D02*
X127696114Y-42027531D01*
X127696114Y-42027531D02*
X127458019Y-42027531D01*
X127458019Y-42027531D02*
X127362781Y-42075150D01*
X127362781Y-42075150D02*
X127315162Y-42122769D01*
X127315162Y-42122769D02*
X127267543Y-42218007D01*
X127267543Y-42218007D02*
X127267543Y-42313245D01*
X127267543Y-42313245D02*
X127315162Y-42456102D01*
X127315162Y-42456102D02*
X127886590Y-43027531D01*
X127886590Y-43027531D02*
X127267543Y-43027531D01*
X125743733Y-42503721D02*
X125600876Y-42551340D01*
X125600876Y-42551340D02*
X125553257Y-42598959D01*
X125553257Y-42598959D02*
X125505638Y-42694197D01*
X125505638Y-42694197D02*
X125505638Y-42837054D01*
X125505638Y-42837054D02*
X125553257Y-42932292D01*
X125553257Y-42932292D02*
X125600876Y-42979912D01*
X125600876Y-42979912D02*
X125696114Y-43027531D01*
X125696114Y-43027531D02*
X126077066Y-43027531D01*
X126077066Y-43027531D02*
X126077066Y-42027531D01*
X126077066Y-42027531D02*
X125743733Y-42027531D01*
X125743733Y-42027531D02*
X125648495Y-42075150D01*
X125648495Y-42075150D02*
X125600876Y-42122769D01*
X125600876Y-42122769D02*
X125553257Y-42218007D01*
X125553257Y-42218007D02*
X125553257Y-42313245D01*
X125553257Y-42313245D02*
X125600876Y-42408483D01*
X125600876Y-42408483D02*
X125648495Y-42456102D01*
X125648495Y-42456102D02*
X125743733Y-42503721D01*
X125743733Y-42503721D02*
X126077066Y-42503721D01*
X124648495Y-43027531D02*
X124648495Y-42503721D01*
X124648495Y-42503721D02*
X124696114Y-42408483D01*
X124696114Y-42408483D02*
X124791352Y-42360864D01*
X124791352Y-42360864D02*
X124981828Y-42360864D01*
X124981828Y-42360864D02*
X125077066Y-42408483D01*
X124648495Y-42979912D02*
X124743733Y-43027531D01*
X124743733Y-43027531D02*
X124981828Y-43027531D01*
X124981828Y-43027531D02*
X125077066Y-42979912D01*
X125077066Y-42979912D02*
X125124685Y-42884673D01*
X125124685Y-42884673D02*
X125124685Y-42789435D01*
X125124685Y-42789435D02*
X125077066Y-42694197D01*
X125077066Y-42694197D02*
X124981828Y-42646578D01*
X124981828Y-42646578D02*
X124743733Y-42646578D01*
X124743733Y-42646578D02*
X124648495Y-42598959D01*
X124219923Y-42979912D02*
X124124685Y-43027531D01*
X124124685Y-43027531D02*
X123934209Y-43027531D01*
X123934209Y-43027531D02*
X123838971Y-42979912D01*
X123838971Y-42979912D02*
X123791352Y-42884673D01*
X123791352Y-42884673D02*
X123791352Y-42837054D01*
X123791352Y-42837054D02*
X123838971Y-42741816D01*
X123838971Y-42741816D02*
X123934209Y-42694197D01*
X123934209Y-42694197D02*
X124077066Y-42694197D01*
X124077066Y-42694197D02*
X124172304Y-42646578D01*
X124172304Y-42646578D02*
X124219923Y-42551340D01*
X124219923Y-42551340D02*
X124219923Y-42503721D01*
X124219923Y-42503721D02*
X124172304Y-42408483D01*
X124172304Y-42408483D02*
X124077066Y-42360864D01*
X124077066Y-42360864D02*
X123934209Y-42360864D01*
X123934209Y-42360864D02*
X123838971Y-42408483D01*
X122981828Y-42979912D02*
X123077066Y-43027531D01*
X123077066Y-43027531D02*
X123267542Y-43027531D01*
X123267542Y-43027531D02*
X123362780Y-42979912D01*
X123362780Y-42979912D02*
X123410399Y-42884673D01*
X123410399Y-42884673D02*
X123410399Y-42503721D01*
X123410399Y-42503721D02*
X123362780Y-42408483D01*
X123362780Y-42408483D02*
X123267542Y-42360864D01*
X123267542Y-42360864D02*
X123077066Y-42360864D01*
X123077066Y-42360864D02*
X122981828Y-42408483D01*
X122981828Y-42408483D02*
X122934209Y-42503721D01*
X122934209Y-42503721D02*
X122934209Y-42598959D01*
X122934209Y-42598959D02*
X123410399Y-42694197D01*
X135696115Y-44637475D02*
X135696115Y-43637475D01*
X135696115Y-43637475D02*
X135315163Y-43637475D01*
X135315163Y-43637475D02*
X135219925Y-43685094D01*
X135219925Y-43685094D02*
X135172306Y-43732713D01*
X135172306Y-43732713D02*
X135124687Y-43827951D01*
X135124687Y-43827951D02*
X135124687Y-43970808D01*
X135124687Y-43970808D02*
X135172306Y-44066046D01*
X135172306Y-44066046D02*
X135219925Y-44113665D01*
X135219925Y-44113665D02*
X135315163Y-44161284D01*
X135315163Y-44161284D02*
X135696115Y-44161284D01*
X134267544Y-44637475D02*
X134267544Y-44113665D01*
X134267544Y-44113665D02*
X134315163Y-44018427D01*
X134315163Y-44018427D02*
X134410401Y-43970808D01*
X134410401Y-43970808D02*
X134600877Y-43970808D01*
X134600877Y-43970808D02*
X134696115Y-44018427D01*
X134267544Y-44589856D02*
X134362782Y-44637475D01*
X134362782Y-44637475D02*
X134600877Y-44637475D01*
X134600877Y-44637475D02*
X134696115Y-44589856D01*
X134696115Y-44589856D02*
X134743734Y-44494617D01*
X134743734Y-44494617D02*
X134743734Y-44399379D01*
X134743734Y-44399379D02*
X134696115Y-44304141D01*
X134696115Y-44304141D02*
X134600877Y-44256522D01*
X134600877Y-44256522D02*
X134362782Y-44256522D01*
X134362782Y-44256522D02*
X134267544Y-44208903D01*
X133791353Y-44637475D02*
X133791353Y-43970808D01*
X133791353Y-44161284D02*
X133743734Y-44066046D01*
X133743734Y-44066046D02*
X133696115Y-44018427D01*
X133696115Y-44018427D02*
X133600877Y-43970808D01*
X133600877Y-43970808D02*
X133505639Y-43970808D01*
X133315162Y-43970808D02*
X132934210Y-43970808D01*
X133172305Y-43637475D02*
X133172305Y-44494617D01*
X133172305Y-44494617D02*
X133124686Y-44589856D01*
X133124686Y-44589856D02*
X133029448Y-44637475D01*
X133029448Y-44637475D02*
X132934210Y-44637475D01*
X132600876Y-44637475D02*
X132600876Y-43637475D01*
X132172305Y-44637475D02*
X132172305Y-44113665D01*
X132172305Y-44113665D02*
X132219924Y-44018427D01*
X132219924Y-44018427D02*
X132315162Y-43970808D01*
X132315162Y-43970808D02*
X132458019Y-43970808D01*
X132458019Y-43970808D02*
X132553257Y-44018427D01*
X132553257Y-44018427D02*
X132600876Y-44066046D01*
X131696114Y-44637475D02*
X131696114Y-43970808D01*
X131696114Y-43637475D02*
X131743733Y-43685094D01*
X131743733Y-43685094D02*
X131696114Y-43732713D01*
X131696114Y-43732713D02*
X131648495Y-43685094D01*
X131648495Y-43685094D02*
X131696114Y-43637475D01*
X131696114Y-43637475D02*
X131696114Y-43732713D01*
X131315162Y-43970808D02*
X131077067Y-44637475D01*
X131077067Y-44637475D02*
X130838972Y-43970808D01*
X129696114Y-44637475D02*
X129696114Y-43637475D01*
X129124686Y-44637475D02*
X129553257Y-44066046D01*
X129124686Y-43637475D02*
X129696114Y-44208903D01*
X128696114Y-44637475D02*
X128696114Y-43970808D01*
X128696114Y-44161284D02*
X128648495Y-44066046D01*
X128648495Y-44066046D02*
X128600876Y-44018427D01*
X128600876Y-44018427D02*
X128505638Y-43970808D01*
X128505638Y-43970808D02*
X128410400Y-43970808D01*
X128077066Y-44637475D02*
X128077066Y-43970808D01*
X128077066Y-43637475D02*
X128124685Y-43685094D01*
X128124685Y-43685094D02*
X128077066Y-43732713D01*
X128077066Y-43732713D02*
X128029447Y-43685094D01*
X128029447Y-43685094D02*
X128077066Y-43637475D01*
X128077066Y-43637475D02*
X128077066Y-43732713D01*
X127648495Y-44589856D02*
X127553257Y-44637475D01*
X127553257Y-44637475D02*
X127362781Y-44637475D01*
X127362781Y-44637475D02*
X127267543Y-44589856D01*
X127267543Y-44589856D02*
X127219924Y-44494617D01*
X127219924Y-44494617D02*
X127219924Y-44446998D01*
X127219924Y-44446998D02*
X127267543Y-44351760D01*
X127267543Y-44351760D02*
X127362781Y-44304141D01*
X127362781Y-44304141D02*
X127505638Y-44304141D01*
X127505638Y-44304141D02*
X127600876Y-44256522D01*
X127600876Y-44256522D02*
X127648495Y-44161284D01*
X127648495Y-44161284D02*
X127648495Y-44113665D01*
X127648495Y-44113665D02*
X127600876Y-44018427D01*
X127600876Y-44018427D02*
X127505638Y-43970808D01*
X127505638Y-43970808D02*
X127362781Y-43970808D01*
X127362781Y-43970808D02*
X127267543Y-44018427D01*
X126791352Y-44637475D02*
X126791352Y-43637475D01*
X126362781Y-44637475D02*
X126362781Y-44113665D01*
X126362781Y-44113665D02*
X126410400Y-44018427D01*
X126410400Y-44018427D02*
X126505638Y-43970808D01*
X126505638Y-43970808D02*
X126648495Y-43970808D01*
X126648495Y-43970808D02*
X126743733Y-44018427D01*
X126743733Y-44018427D02*
X126791352Y-44066046D01*
X125886590Y-43970808D02*
X125886590Y-44637475D01*
X125886590Y-44066046D02*
X125838971Y-44018427D01*
X125838971Y-44018427D02*
X125743733Y-43970808D01*
X125743733Y-43970808D02*
X125600876Y-43970808D01*
X125600876Y-43970808D02*
X125505638Y-44018427D01*
X125505638Y-44018427D02*
X125458019Y-44113665D01*
X125458019Y-44113665D02*
X125458019Y-44637475D01*
X124553257Y-44637475D02*
X124553257Y-44113665D01*
X124553257Y-44113665D02*
X124600876Y-44018427D01*
X124600876Y-44018427D02*
X124696114Y-43970808D01*
X124696114Y-43970808D02*
X124886590Y-43970808D01*
X124886590Y-43970808D02*
X124981828Y-44018427D01*
X124553257Y-44589856D02*
X124648495Y-44637475D01*
X124648495Y-44637475D02*
X124886590Y-44637475D01*
X124886590Y-44637475D02*
X124981828Y-44589856D01*
X124981828Y-44589856D02*
X125029447Y-44494617D01*
X125029447Y-44494617D02*
X125029447Y-44399379D01*
X125029447Y-44399379D02*
X124981828Y-44304141D01*
X124981828Y-44304141D02*
X124886590Y-44256522D01*
X124886590Y-44256522D02*
X124648495Y-44256522D01*
X124648495Y-44256522D02*
X124553257Y-44208903D01*
X135362782Y-45723609D02*
X135696115Y-45723609D01*
X135696115Y-46247419D02*
X135696115Y-45247419D01*
X135696115Y-45247419D02*
X135219925Y-45247419D01*
X134696115Y-46247419D02*
X134791353Y-46199800D01*
X134791353Y-46199800D02*
X134838972Y-46152180D01*
X134838972Y-46152180D02*
X134886591Y-46056942D01*
X134886591Y-46056942D02*
X134886591Y-45771228D01*
X134886591Y-45771228D02*
X134838972Y-45675990D01*
X134838972Y-45675990D02*
X134791353Y-45628371D01*
X134791353Y-45628371D02*
X134696115Y-45580752D01*
X134696115Y-45580752D02*
X134553258Y-45580752D01*
X134553258Y-45580752D02*
X134458020Y-45628371D01*
X134458020Y-45628371D02*
X134410401Y-45675990D01*
X134410401Y-45675990D02*
X134362782Y-45771228D01*
X134362782Y-45771228D02*
X134362782Y-46056942D01*
X134362782Y-46056942D02*
X134410401Y-46152180D01*
X134410401Y-46152180D02*
X134458020Y-46199800D01*
X134458020Y-46199800D02*
X134553258Y-46247419D01*
X134553258Y-46247419D02*
X134696115Y-46247419D01*
X133934210Y-46247419D02*
X133934210Y-45580752D01*
X133934210Y-45771228D02*
X133886591Y-45675990D01*
X133886591Y-45675990D02*
X133838972Y-45628371D01*
X133838972Y-45628371D02*
X133743734Y-45580752D01*
X133743734Y-45580752D02*
X133648496Y-45580752D01*
X131981829Y-46152180D02*
X132029448Y-46199800D01*
X132029448Y-46199800D02*
X132172305Y-46247419D01*
X132172305Y-46247419D02*
X132267543Y-46247419D01*
X132267543Y-46247419D02*
X132410400Y-46199800D01*
X132410400Y-46199800D02*
X132505638Y-46104561D01*
X132505638Y-46104561D02*
X132553257Y-46009323D01*
X132553257Y-46009323D02*
X132600876Y-45818847D01*
X132600876Y-45818847D02*
X132600876Y-45675990D01*
X132600876Y-45675990D02*
X132553257Y-45485514D01*
X132553257Y-45485514D02*
X132505638Y-45390276D01*
X132505638Y-45390276D02*
X132410400Y-45295038D01*
X132410400Y-45295038D02*
X132267543Y-45247419D01*
X132267543Y-45247419D02*
X132172305Y-45247419D01*
X132172305Y-45247419D02*
X132029448Y-45295038D01*
X132029448Y-45295038D02*
X131981829Y-45342657D01*
X131600876Y-46199800D02*
X131458019Y-46247419D01*
X131458019Y-46247419D02*
X131219924Y-46247419D01*
X131219924Y-46247419D02*
X131124686Y-46199800D01*
X131124686Y-46199800D02*
X131077067Y-46152180D01*
X131077067Y-46152180D02*
X131029448Y-46056942D01*
X131029448Y-46056942D02*
X131029448Y-45961704D01*
X131029448Y-45961704D02*
X131077067Y-45866466D01*
X131077067Y-45866466D02*
X131124686Y-45818847D01*
X131124686Y-45818847D02*
X131219924Y-45771228D01*
X131219924Y-45771228D02*
X131410400Y-45723609D01*
X131410400Y-45723609D02*
X131505638Y-45675990D01*
X131505638Y-45675990D02*
X131553257Y-45628371D01*
X131553257Y-45628371D02*
X131600876Y-45533133D01*
X131600876Y-45533133D02*
X131600876Y-45437895D01*
X131600876Y-45437895D02*
X131553257Y-45342657D01*
X131553257Y-45342657D02*
X131505638Y-45295038D01*
X131505638Y-45295038D02*
X131410400Y-45247419D01*
X131410400Y-45247419D02*
X131172305Y-45247419D01*
X131172305Y-45247419D02*
X131029448Y-45295038D01*
X130696114Y-45247419D02*
X130077067Y-45247419D01*
X130077067Y-45247419D02*
X130410400Y-45628371D01*
X130410400Y-45628371D02*
X130267543Y-45628371D01*
X130267543Y-45628371D02*
X130172305Y-45675990D01*
X130172305Y-45675990D02*
X130124686Y-45723609D01*
X130124686Y-45723609D02*
X130077067Y-45818847D01*
X130077067Y-45818847D02*
X130077067Y-46056942D01*
X130077067Y-46056942D02*
X130124686Y-46152180D01*
X130124686Y-46152180D02*
X130172305Y-46199800D01*
X130172305Y-46199800D02*
X130267543Y-46247419D01*
X130267543Y-46247419D02*
X130553257Y-46247419D01*
X130553257Y-46247419D02*
X130648495Y-46199800D01*
X130648495Y-46199800D02*
X130696114Y-46152180D01*
X129219924Y-45580752D02*
X129219924Y-46247419D01*
X129458019Y-45199800D02*
X129696114Y-45914085D01*
X129696114Y-45914085D02*
X129077067Y-45914085D01*
X128505638Y-45247419D02*
X128410400Y-45247419D01*
X128410400Y-45247419D02*
X128315162Y-45295038D01*
X128315162Y-45295038D02*
X128267543Y-45342657D01*
X128267543Y-45342657D02*
X128219924Y-45437895D01*
X128219924Y-45437895D02*
X128172305Y-45628371D01*
X128172305Y-45628371D02*
X128172305Y-45866466D01*
X128172305Y-45866466D02*
X128219924Y-46056942D01*
X128219924Y-46056942D02*
X128267543Y-46152180D01*
X128267543Y-46152180D02*
X128315162Y-46199800D01*
X128315162Y-46199800D02*
X128410400Y-46247419D01*
X128410400Y-46247419D02*
X128505638Y-46247419D01*
X128505638Y-46247419D02*
X128600876Y-46199800D01*
X128600876Y-46199800D02*
X128648495Y-46152180D01*
X128648495Y-46152180D02*
X128696114Y-46056942D01*
X128696114Y-46056942D02*
X128743733Y-45866466D01*
X128743733Y-45866466D02*
X128743733Y-45628371D01*
X128743733Y-45628371D02*
X128696114Y-45437895D01*
X128696114Y-45437895D02*
X128648495Y-45342657D01*
X128648495Y-45342657D02*
X128600876Y-45295038D01*
X128600876Y-45295038D02*
X128505638Y-45247419D01*
X127267543Y-46247419D02*
X127743733Y-46247419D01*
X127743733Y-46247419D02*
X127743733Y-45247419D01*
X127029447Y-45247419D02*
X126362781Y-46247419D01*
X126362781Y-45247419D02*
X127029447Y-46247419D01*
X124886590Y-45723609D02*
X125219923Y-45723609D01*
X125219923Y-46247419D02*
X125219923Y-45247419D01*
X125219923Y-45247419D02*
X124743733Y-45247419D01*
X123934209Y-46247419D02*
X123934209Y-45723609D01*
X123934209Y-45723609D02*
X123981828Y-45628371D01*
X123981828Y-45628371D02*
X124077066Y-45580752D01*
X124077066Y-45580752D02*
X124267542Y-45580752D01*
X124267542Y-45580752D02*
X124362780Y-45628371D01*
X123934209Y-46199800D02*
X124029447Y-46247419D01*
X124029447Y-46247419D02*
X124267542Y-46247419D01*
X124267542Y-46247419D02*
X124362780Y-46199800D01*
X124362780Y-46199800D02*
X124410399Y-46104561D01*
X124410399Y-46104561D02*
X124410399Y-46009323D01*
X124410399Y-46009323D02*
X124362780Y-45914085D01*
X124362780Y-45914085D02*
X124267542Y-45866466D01*
X124267542Y-45866466D02*
X124029447Y-45866466D01*
X124029447Y-45866466D02*
X123934209Y-45818847D01*
X123315161Y-46247419D02*
X123410399Y-46199800D01*
X123410399Y-46199800D02*
X123458018Y-46104561D01*
X123458018Y-46104561D02*
X123458018Y-45247419D01*
X122791351Y-46247419D02*
X122886589Y-46199800D01*
X122886589Y-46199800D02*
X122934208Y-46104561D01*
X122934208Y-46104561D02*
X122934208Y-45247419D01*
X121696112Y-45342657D02*
X121648493Y-45295038D01*
X121648493Y-45295038D02*
X121553255Y-45247419D01*
X121553255Y-45247419D02*
X121315160Y-45247419D01*
X121315160Y-45247419D02*
X121219922Y-45295038D01*
X121219922Y-45295038D02*
X121172303Y-45342657D01*
X121172303Y-45342657D02*
X121124684Y-45437895D01*
X121124684Y-45437895D02*
X121124684Y-45533133D01*
X121124684Y-45533133D02*
X121172303Y-45675990D01*
X121172303Y-45675990D02*
X121743731Y-46247419D01*
X121743731Y-46247419D02*
X121124684Y-46247419D01*
X120505636Y-45247419D02*
X120410398Y-45247419D01*
X120410398Y-45247419D02*
X120315160Y-45295038D01*
X120315160Y-45295038D02*
X120267541Y-45342657D01*
X120267541Y-45342657D02*
X120219922Y-45437895D01*
X120219922Y-45437895D02*
X120172303Y-45628371D01*
X120172303Y-45628371D02*
X120172303Y-45866466D01*
X120172303Y-45866466D02*
X120219922Y-46056942D01*
X120219922Y-46056942D02*
X120267541Y-46152180D01*
X120267541Y-46152180D02*
X120315160Y-46199800D01*
X120315160Y-46199800D02*
X120410398Y-46247419D01*
X120410398Y-46247419D02*
X120505636Y-46247419D01*
X120505636Y-46247419D02*
X120600874Y-46199800D01*
X120600874Y-46199800D02*
X120648493Y-46152180D01*
X120648493Y-46152180D02*
X120696112Y-46056942D01*
X120696112Y-46056942D02*
X120743731Y-45866466D01*
X120743731Y-45866466D02*
X120743731Y-45628371D01*
X120743731Y-45628371D02*
X120696112Y-45437895D01*
X120696112Y-45437895D02*
X120648493Y-45342657D01*
X120648493Y-45342657D02*
X120600874Y-45295038D01*
X120600874Y-45295038D02*
X120505636Y-45247419D01*
X119791350Y-45342657D02*
X119743731Y-45295038D01*
X119743731Y-45295038D02*
X119648493Y-45247419D01*
X119648493Y-45247419D02*
X119410398Y-45247419D01*
X119410398Y-45247419D02*
X119315160Y-45295038D01*
X119315160Y-45295038D02*
X119267541Y-45342657D01*
X119267541Y-45342657D02*
X119219922Y-45437895D01*
X119219922Y-45437895D02*
X119219922Y-45533133D01*
X119219922Y-45533133D02*
X119267541Y-45675990D01*
X119267541Y-45675990D02*
X119838969Y-46247419D01*
X119838969Y-46247419D02*
X119219922Y-46247419D01*
X118315160Y-45247419D02*
X118791350Y-45247419D01*
X118791350Y-45247419D02*
X118838969Y-45723609D01*
X118838969Y-45723609D02*
X118791350Y-45675990D01*
X118791350Y-45675990D02*
X118696112Y-45628371D01*
X118696112Y-45628371D02*
X118458017Y-45628371D01*
X118458017Y-45628371D02*
X118362779Y-45675990D01*
X118362779Y-45675990D02*
X118315160Y-45723609D01*
X118315160Y-45723609D02*
X118267541Y-45818847D01*
X118267541Y-45818847D02*
X118267541Y-46056942D01*
X118267541Y-46056942D02*
X118315160Y-46152180D01*
X118315160Y-46152180D02*
X118362779Y-46199800D01*
X118362779Y-46199800D02*
X118458017Y-46247419D01*
X118458017Y-46247419D02*
X118696112Y-46247419D01*
X118696112Y-46247419D02*
X118791350Y-46199800D01*
X118791350Y-46199800D02*
X118838969Y-46152180D01*
D11*
X84829819Y-33396666D02*
X85544104Y-33396666D01*
X85544104Y-33396666D02*
X85686961Y-33349047D01*
X85686961Y-33349047D02*
X85782200Y-33253809D01*
X85782200Y-33253809D02*
X85829819Y-33110952D01*
X85829819Y-33110952D02*
X85829819Y-33015714D01*
X85829819Y-34396666D02*
X85829819Y-33825238D01*
X85829819Y-34110952D02*
X84829819Y-34110952D01*
X84829819Y-34110952D02*
X84972676Y-34015714D01*
X84972676Y-34015714D02*
X85067914Y-33920476D01*
X85067914Y-33920476D02*
X85115533Y-33825238D01*
%TO.C,J1*%
D12*
X86815000Y-31130000D02*
X86815000Y-33730000D01*
X86815000Y-31130000D02*
X137735000Y-31130000D01*
X86815000Y-33730000D02*
X89415000Y-33730000D01*
X86815000Y-35000000D02*
X86815000Y-36330000D01*
X86815000Y-36330000D02*
X88145000Y-36330000D01*
X89415000Y-33730000D02*
X89415000Y-36330000D01*
X89415000Y-36330000D02*
X137735000Y-36330000D01*
X137735000Y-31130000D02*
X137735000Y-36330000D01*
%TD*%
%LPC*%
D13*
%TO.C,J2*%
X82000000Y-39960000D03*
D14*
X82000000Y-42500000D03*
X82000000Y-45040000D03*
X82000000Y-47580000D03*
X82000000Y-50120000D03*
%TD*%
D13*
%TO.C,J1*%
X88145000Y-35000000D03*
D14*
X88145000Y-32460000D03*
X90685000Y-35000000D03*
X90685000Y-32460000D03*
X93225000Y-35000000D03*
X93225000Y-32460000D03*
X95765000Y-35000000D03*
X95765000Y-32460000D03*
X98305000Y-35000000D03*
X98305000Y-32460000D03*
X100845000Y-35000000D03*
X100845000Y-32460000D03*
X103385000Y-35000000D03*
X103385000Y-32460000D03*
X105925000Y-35000000D03*
X105925000Y-32460000D03*
X108465000Y-35000000D03*
X108465000Y-32460000D03*
X111005000Y-35000000D03*
X111005000Y-32460000D03*
X113545000Y-35000000D03*
X113545000Y-32460000D03*
X116085000Y-35000000D03*
X116085000Y-32460000D03*
X118625000Y-35000000D03*
X118625000Y-32460000D03*
X121165000Y-35000000D03*
X121165000Y-32460000D03*
X123705000Y-35000000D03*
X123705000Y-32460000D03*
X126245000Y-35000000D03*
X126245000Y-32460000D03*
X128785000Y-35000000D03*
X128785000Y-32460000D03*
X131325000Y-35000000D03*
X131325000Y-32460000D03*
X133865000Y-35000000D03*
X133865000Y-32460000D03*
X136405000Y-35000000D03*
X136405000Y-32460000D03*
%TD*%
%LPD*%
M02*
